# Blender3D v249 OBJ File: house.blend
# www.blender3d.org
v 1.000000 -1.000000 -1.000000
v 1.000000 -1.000000 1.000000
v -1.000000 -1.000000 1.000000
v -1.000000 -1.000000 -1.000000
v 1.000000 0.172929 -0.999999
v 0.999999 0.172929 1.000001
v -1.000000 0.172929 1.000000
v -1.000000 0.172929 -1.000000
v 1.000000 -1.000000 0.000000
v -1.000000 -1.000000 -0.000000
v 1.000000 0.554285 0.000001
v -1.000000 0.554285 -0.000000
v -1.222480 0.553301 -0.000000
v 1.222480 0.553301 0.000001
v -1.222480 0.087101 -1.222480
v -1.222481 0.087101 1.222480
v 1.222479 0.087101 1.222481
v 1.222481 0.087101 -1.222480
v 1.222481 0.376864 -1.222480
v -1.222480 0.376864 -1.222480
v -1.222481 0.376864 1.222480
v 1.222479 0.376864 1.222481
v 1.222480 0.843064 0.000001
v -1.222480 0.843064 -0.000000
v 0.837304 0.468407 0.334338
v 0.837304 0.468407 0.793450
v 0.378193 0.468407 0.793450
v 0.378193 0.468407 0.334338
v 0.837305 0.927519 0.334338
v 0.837304 0.927519 0.793450
v 0.378193 0.927519 0.793450
v 0.378193 0.927519 0.334338
v 0.929909 1.183329 0.881462
v 0.285589 1.183329 0.881462
v 0.929909 1.183329 0.246326
v 0.285589 1.183329 0.246326
v 0.285589 0.927519 0.246326
v 0.285589 0.927519 0.881462
v 0.929909 0.927519 0.881462
v 0.929909 0.927519 0.246326
vn -0.000000 1.000000 0.000000
vn 0.000000 -1.000000 0.000000
vn 0.000000 0.000000 -1.000000
vn -1.000000 -0.000000 -0.000000
vn 0.000000 0.000000 1.000000
vn 1.000000 0.000000 0.000000
vn 0.000000 -0.934362 -0.356325
vn -0.000000 -0.934362 0.356325
vn -1.000000 -0.000000 -0.000001
vn 0.000000 0.934362 -0.356324
vn -0.000000 0.934362 0.356324
vn 1.000000 0.000000 0.000001
vn 1.000000 0.000001 -0.000000
vn -0.000000 -0.000001 1.000000
usemtl Material
s off
f 35//1 36//1 34//1
f 35//1 34//1 33//1
f 29//2 32//2 37//2
f 29//2 37//2 40//2
f 29//2 40//2 39//2
f 29//2 39//2 30//2
f 30//2 39//2 38//2
f 30//2 38//2 31//2
f 31//2 38//2 37//2
f 31//2 37//2 32//2
f 40//3 37//3 36//3
f 40//3 36//3 35//3
f 37//4 38//4 34//4
f 37//4 34//4 36//4
f 38//5 39//5 33//5
f 38//5 33//5 34//5
f 39//6 40//6 35//6
f 39//6 35//6 33//6
f 28//3 32//3 29//3
f 28//3 29//3 25//3
f 27//4 31//4 32//4
f 27//4 32//4 28//4
f 26//5 30//5 27//5
f 30//5 31//5 27//5
f 25//6 29//6 26//6
f 29//6 30//6 26//6
f 27//2 28//2 25//2
f 27//2 25//2 26//2
f 23//7 22//7 21//7
f 23//7 21//7 24//7
f 19//8 23//8 20//8
f 23//8 24//8 20//8
f 13//6 15//6 20//6
f 13//6 20//6 24//6
f 16//6 13//6 21//6
f 13//6 24//6 21//6
f 14//9 17//9 22//9
f 14//9 22//9 23//9
f 18//9 14//9 19//9
f 14//9 23//9 19//9
f 17//3 16//3 21//3
f 17//3 21//3 22//3
f 15//5 18//5 19//5
f 15//5 19//5 20//5
f 15//10 13//10 14//10
f 15//10 14//10 18//10
f 13//11 16//11 14//11
f 16//11 17//11 14//11
f 12//4 8//4 10//4
f 8//4 4//4 10//4
f 7//4 12//4 10//4
f 7//4 10//4 3//4
f 11//12 6//12 9//12
f 6//13 2//13 9//13
f 9//6 1//6 5//6
f 9//12 5//12 11//12
f 9//2 2//2 3//2
f 9//2 3//2 10//2
f 1//2 9//2 10//2
f 1//2 10//2 4//2
f 5//3 1//3 4//3
f 5//3 4//3 8//3
f 2//14 6//14 3//14
f 6//5 7//5 3//5
